<svg width="20" height="21" viewBox="0 0 20 21" fill="none" xmlns="http://www.w3.org/2000/svg">
<path d="M19.1293 0.525635H1.18006C0.7484 0.525635 0.399658 0.874377 0.399658 1.30604V19.2553C0.399658 19.6869 0.7484 20.0357 1.18006 20.0357H19.1293C19.5609 20.0357 19.9097 19.6869 19.9097 19.2553V1.30604C19.9097 0.874377 19.5609 0.525635 19.1293 0.525635ZM6.18682 17.1506H3.29202V7.83946H6.18682V17.1506ZM4.74064 6.56643C4.40879 6.56643 4.08439 6.46802 3.80847 6.28366C3.53255 6.09929 3.31749 5.83724 3.1905 5.53065C3.0635 5.22407 3.03028 4.8867 3.09502 4.56123C3.15976 4.23576 3.31956 3.93679 3.55421 3.70214C3.78886 3.46748 4.08783 3.30768 4.4133 3.24294C4.73878 3.1782 5.07614 3.21143 5.38273 3.33842C5.68932 3.46542 5.95136 3.68047 6.13573 3.95639C6.3201 4.23232 6.4185 4.55672 6.4185 4.88857C6.41606 5.81529 5.66493 6.56643 4.74064 6.56643ZM17.0246 17.1506H14.1323V12.6219C14.1323 11.5415 14.1128 10.1538 12.6276 10.1538C11.1229 10.1538 10.8912 11.3293 10.8912 12.5438V17.1506H8.00125V7.83946H10.7766V9.11249H10.8156C11.2009 8.38086 12.1447 7.60778 13.5543 7.60778C16.4857 7.60778 17.0246 9.53683 17.0246 12.0439V17.1506Z" fill="#2091F9"/>
</svg>
