<svg width="20" height="21" fill="none" xmlns="http://www.w3.org/2000/svg"><path d="M19.13.526H1.18a.78.78 0 00-.78.78v17.95c0 .43.348.78.78.78h17.95a.78.78 0 00.78-.78V1.305a.78.78 0 00-.78-.78zM6.186 17.15H3.292V7.839h2.895v9.312zM4.74 6.566a1.678 1.678 0 110-3.355 1.678 1.678 0 010 3.355zm12.284 10.585h-2.893v-4.53c0-1.08-.02-2.467-1.504-2.467-1.505 0-1.737 1.175-1.737 2.39v4.607H8V7.839h2.776v1.273h.039c.385-.731 1.329-1.504 2.738-1.504 2.932 0 3.47 1.929 3.47 4.436v5.107z" fill="#2091F9"/></svg>