<svg width="21" height="17" viewBox="0 0 21 17" fill="none" xmlns="http://www.w3.org/2000/svg">
<path d="M20.3888 1.95954C19.6632 2.27258 18.8735 2.49787 18.06 2.58561C18.9045 2.08389 19.537 1.29126 19.8386 0.356424C19.0462 0.827849 18.178 1.15842 17.2727 1.33347C16.8943 0.928962 16.4367 0.60671 15.9283 0.386797C15.42 0.166884 14.8717 0.0540231 14.3178 0.0552467C12.0768 0.0552467 10.2745 1.8718 10.2745 4.10099C10.2745 4.41402 10.3124 4.72706 10.3741 5.02824C7.01844 4.85275 4.02563 3.24963 2.03596 0.795148C1.67342 1.41438 1.48344 2.11944 1.48578 2.83699C1.48578 4.24091 2.19959 5.47882 3.2881 6.20686C2.64663 6.1816 2.02017 6.00528 1.45969 5.69225V5.74205C1.45969 7.70801 2.84938 9.33722 4.7015 9.71191C4.35375 9.80224 3.99601 9.84845 3.63671 9.84945C3.37348 9.84945 3.12447 9.82337 2.87309 9.7878C3.38533 11.3909 4.87699 12.5553 6.65323 12.5933C5.26354 13.6818 3.52288 14.3221 1.63281 14.3221C1.29369 14.3221 0.980654 14.3102 0.655762 14.2723C2.4486 15.4224 4.57581 16.0864 6.86666 16.0864C14.3036 16.0864 18.3731 9.92534 18.3731 4.57766C18.3731 4.40217 18.3731 4.22668 18.3612 4.05119C19.1485 3.47492 19.8386 2.7611 20.3888 1.95954Z" fill="#2091F9"/>
</svg>
