<svg width="21" height="21" viewBox="0 0 21 21" fill="none" xmlns="http://www.w3.org/2000/svg">
<path d="M20.1585 0.726379H1.60642C1.16026 0.726379 0.799805 1.08683 0.799805 1.53299V20.0851C0.799805 20.5312 1.16026 20.8917 1.60642 20.8917H20.1585C20.6047 20.8917 20.9651 20.5312 20.9651 20.0851V1.53299C20.9651 1.08683 20.6047 0.726379 20.1585 0.726379ZM17.8294 6.61213H16.2187C14.9559 6.61213 14.7113 7.21205 14.7113 8.09428V10.0377H17.7261L17.3328 13.0802H14.7113V20.8917H11.5681V13.0827H8.93903V10.0377H11.5681V7.79432C11.5681 5.19047 13.1586 3.77134 15.4827 3.77134C16.5968 3.77134 17.5521 3.85452 17.8319 3.89233V6.61213H17.8294Z" fill="white"/>
</svg>
