<svg width="21" height="17" fill="none" xmlns="http://www.w3.org/2000/svg"><path d="M20.389 1.96a8.108 8.108 0 01-2.329.626 4.034 4.034 0 001.779-2.23 7.983 7.983 0 01-2.566.977A4.034 4.034 0 0014.318.055a4.043 4.043 0 00-4.043 4.046c0 .313.037.626.1.927A11.492 11.492 0 012.035.795a4.015 4.015 0 00-.55 2.042c0 1.404.714 2.642 1.802 3.37a4.079 4.079 0 01-1.828-.515v.05a4.045 4.045 0 003.242 3.97c-.348.09-.706.136-1.065.137a5.38 5.38 0 01-.764-.061 4.051 4.051 0 003.78 2.805 8.105 8.105 0 01-5.02 1.73c-.34 0-.652-.013-.977-.05a11.451 11.451 0 006.21 1.813c7.438 0 11.507-6.16 11.507-11.508 0-.176 0-.351-.012-.527a8.71 8.71 0 002.03-2.091z" fill="#2091F9"/></svg>